<?xml version="1.0" encoding="utf-8"?>
<!-- Generator: Adobe Illustrator 15.1.0, SVG Export Plug-In . SVG Version: 6.00 Build 0)  -->
<!DOCTYPE svg PUBLIC "-//W3C//DTD SVG 1.1//EN" "http://www.w3.org/Graphics/SVG/1.1/DTD/svg11.dtd">
<svg version="1.1" id="Layer_1" xmlns="http://www.w3.org/2000/svg" xmlns:xlink="http://www.w3.org/1999/xlink" x="0px" y="0px"
	 width="681px" height="181px" viewBox="0 0 681 181" enable-background="new 0 0 681 181" xml:space="preserve">
<g>
	<defs>
		<rect id="SVGID_1_" x="-301" y="-291" width="1280" height="800"/>
	</defs>
	<clipPath id="SVGID_2_">
		<use xlink:href="#SVGID_1_"  overflow="visible"/>
	</clipPath>
	<path clip-path="url(#SVGID_2_)" fill="#258AA5" d="M659.041,13.181c-0.515,0.003-0.945,0.489-1.207,0.888
		c-0.262,0.398-8.058,12.157-8.18,12.426c-0.123,0.269-0.519,0.801-0.358,1.499c0.127,0.55,0.38,0.807,0.875,1.22
		c5.988,4.998,10.099,12.167,11.12,20.3c0.092,0.731,0.457,1.312,0.801,1.706c0.444,0.508,1.787,0.508,1.454,0.508h14.367
		c0.382,0,1.18-0.171,1.528-0.533c0.298-0.31,0.531-0.845,0.479-1.528c-1.106-14.661-8.513-27.557-19.524-35.995
		C659.887,13.282,659.524,13.178,659.041,13.181"/>
	<path clip-path="url(#SVGID_2_)" fill="#262628" d="M662.077,55.714c-0.391,0.319-0.668,0.727-0.733,1.312
		c-1.757,15.797-15.15,28.082-31.416,28.082c-17.462,0-31.616-14.154-31.616-31.615s14.154-31.615,31.616-31.615
		c5.024,0,9.772,1.178,13.99,3.266c0.603,0.298,1.156,0.563,1.703,0.376c0.547-0.188,0.981-0.808,0.981-0.808
		s8.068-12.29,8.304-12.615c0.234-0.325,0.384-1.039,0.292-1.426c-0.096-0.405-0.451-0.772-1.039-1.097
		c-7.183-3.972-15.443-6.233-24.231-6.233c-27.698,0-50.152,22.454-50.152,50.152c0,27.698,22.454,50.152,50.152,50.152
		c26.409,0,48.038-20.418,49.993-46.329c0.052-0.682-0.19-1.283-0.509-1.602s-1.043-0.456-1.451-0.456h-14.36
		C663.263,55.258,662.469,55.395,662.077,55.714"/>
	<path clip-path="url(#SVGID_2_)" fill="#A6A8AB" d="M657.563,53.493c0,15.263-12.373,27.636-27.636,27.636
		c-15.264,0-27.637-12.373-27.637-27.636s12.373-27.636,27.637-27.636C645.19,25.857,657.563,38.229,657.563,53.493"/>
	<path clip-path="url(#SVGID_2_)" fill="#262628" d="M98.423,87.57c-3.669-17.649-17.474-26.561-34.948-26.561
		c-29.707,0-42.288,24.464-42.288,50.501c0,28.482,12.581,52.248,42.462,52.248c21.669,0,34.6-15.378,35.998-35.997h16.6
		c-3.32,31.279-22.367,49.977-53.996,49.977c-38.618,0-57.665-28.658-57.665-65.005c0-36.347,20.62-65.704,59.063-65.704
		c26.037,0,47.705,13.98,51.375,40.541H98.423z"/>
	<path clip-path="url(#SVGID_2_)" fill="#262628" d="M168.147,82.328c28.658,0,43.861,20.795,43.861,47.356
		c0,26.387-15.203,47.181-43.861,47.181s-43.861-20.794-43.861-47.181C124.286,103.123,139.489,82.328,168.147,82.328
		 M168.147,163.759c15.552,0,28.134-12.232,28.134-34.075s-12.582-34.25-28.134-34.25c-15.552,0-28.134,12.407-28.134,34.25
		S152.595,163.759,168.147,163.759"/>
	<path clip-path="url(#SVGID_2_)" fill="#262628" d="M239.968,68.174h-14.854V50.001h14.854V68.174z M225.115,84.425h14.854v90.342
		h-14.854V84.425z"/>
	<path clip-path="url(#SVGID_2_)" fill="#262628" d="M257.79,84.425h13.979v14.329h0.35c6.291-11.184,16.251-16.426,29.357-16.426
		c23.765,0,31.104,13.63,31.104,33.026v59.413h-14.853v-61.16c0-11.183-6.99-18.173-18.348-18.173
		c-17.999,0-26.736,12.057-26.736,28.308v51.025H257.79V84.425z"/>
	<path clip-path="url(#SVGID_2_)" fill="#258AA5" d="M464.28,113.657c0,35.823-22.542,65.354-59.762,65.354
		c-37.221,0-59.763-29.53-59.763-65.354c0-35.473,22.542-65.354,59.763-65.354C441.738,48.303,464.28,78.184,464.28,113.657
		 M366.599,113.657c0,23.94,11.184,47.53,37.92,47.53c26.735,0,37.919-23.59,37.919-47.53c0-23.939-11.184-47.53-37.919-47.53
		C377.782,66.127,366.599,89.718,366.599,113.657"/>
	<path clip-path="url(#SVGID_2_)" fill="#258AA5" d="M493.291,134.452c0,19.047,14.154,26.735,31.629,26.735
		c19.222,0,26.386-9.61,26.386-18.872c0-9.61-5.243-13.455-10.31-15.377c-8.912-3.32-19.921-5.592-37.221-10.311
		c-21.493-5.592-27.609-18.697-27.609-31.629c0-25.163,23.066-36.696,45.608-36.696c25.862,0,47.88,13.805,47.88,39.842h-21.842
		c-1.225-16.077-11.709-22.018-26.912-22.018c-10.135,0-22.892,3.67-22.892,16.251c0,8.912,5.941,13.455,14.854,16.077
		c1.922,0.524,29.532,7.688,35.997,9.611c16.251,5.067,24.29,18.523,24.29,31.803c0,27.959-24.989,39.143-49.628,39.143
		c-28.482,0-51.549-13.63-52.073-44.56H493.291z"/>
</g>
</svg>
